<?xml version="1.0" standalone="no"?>
<!DOCTYPE svg PUBLIC "-//W3C//DTD SVG 20010904//EN"
 "http://www.w3.org/TR/2001/REC-SVG-20010904/DTD/svg10.dtd">
<svg version="1.0" xmlns="http://www.w3.org/2000/svg"
 width="600.000000pt" height="600.000000pt" viewBox="0 0 600.000000 600.000000"
 preserveAspectRatio="xMidYMid meet">
<metadata>
Created by potrace 1.16, written by Peter Selinger 2001-2019
</metadata>
<g transform="translate(0.000000,600.000000) scale(0.100000,-0.100000)"
fill="#000000" stroke="none">
<path d="M2772 5919 c-285 -20 -648 -109 -907 -221 -140 -61 -179 -80 -294
-145 -833 -471 -1388 -1315 -1481 -2254 -13 -138 -14 -477 0 -604 104 -989
697 -1853 1582 -2305 442 -226 909 -331 1413 -317 309 9 536 46 808 134 940
301 1664 1047 1931 1988 77 271 109 499 110 790 1 663 -192 1244 -593 1783
-112 150 -379 423 -521 532 -607 465 -1294 673 -2048 619z m102 -221 c22 -6
46 -16 53 -21 7 -5 37 -9 67 -9 42 -1 60 -5 73 -20 10 -11 29 -25 43 -31 23
-10 20 -11 -32 -20 -78 -12 -76 -31 1 -22 38 4 61 3 65 -4 11 -17 23 -13 29 9
4 16 13 20 39 19 37 -2 88 -18 88 -29 0 -3 -25 -5 -55 -2 -76 6 -71 -14 6 -22
40 -5 59 -11 56 -19 -5 -13 -7 -13 -51 -3 -26 6 -28 5 -17 -8 8 -9 22 -16 32
-16 11 0 19 -5 19 -11 0 -7 -12 -9 -35 -5 -69 13 -25 -22 48 -38 15 -4 30 -13
34 -22 9 -23 -5 -29 -26 -10 -14 13 -21 14 -27 5 -4 -7 1 -18 12 -26 18 -13
18 -15 2 -24 -10 -6 -18 -19 -18 -29 0 -11 -5 -20 -11 -20 -8 0 -10 13 -5 38
5 35 3 39 -24 49 -34 13 -41 -1 -12 -23 15 -12 15 -13 -9 -14 -18 0 -29 8 -38
26 -16 35 -47 29 -43 -9 2 -21 -1 -27 -18 -27 -11 0 -29 5 -39 12 -22 13 -55
4 -49 -15 3 -6 20 -13 39 -15 41 -4 59 -18 59 -44 0 -17 -5 -20 -30 -14 -26 5
-30 2 -30 -15 0 -30 -24 -17 -28 15 -4 34 -28 45 -46 21 -14 -19 -36 -13 -36
11 0 8 -10 14 -23 14 -13 0 -32 9 -42 20 -10 11 -21 17 -26 15 -4 -3 -10 -1
-13 4 -4 5 -2 12 4 16 15 9 12 35 -4 35 -8 0 -22 -10 -30 -22 -13 -19 -19 -20
-41 -10 -16 7 -33 9 -43 3 -26 -13 -92 -21 -92 -11 0 5 8 13 17 19 25 13 9 25
-15 12 -12 -6 -26 -11 -32 -11 -19 0 -2 17 34 34 25 12 33 21 29 32 -4 11 -12
13 -27 8 -39 -13 -126 -17 -126 -5 0 6 19 11 45 11 25 0 45 4 45 10 0 12 -45
24 -59 16 -5 -4 -13 -2 -16 4 -4 6 -16 8 -27 4 -12 -4 -24 -1 -28 7 -7 10 -12
10 -26 -2 -15 -12 -17 -12 -12 1 2 8 18 21 34 29 71 34 79 41 77 60 -2 15 9
23 47 35 27 9 58 16 69 16 11 0 25 9 31 19 6 12 17 17 29 14 10 -3 22 0 25 6
9 14 58 14 110 -1z m1056 -193 c0 -19 49 -64 69 -65 9 0 12 8 9 25 -4 19 -1
25 11 25 23 0 41 -20 41 -45 0 -24 18 -45 37 -45 7 0 13 10 13 21 0 20 2 20
23 6 12 -8 22 -25 22 -38 0 -34 -5 -42 -20 -29 -17 14 -72 30 -79 23 -12 -12
46 -53 74 -53 24 0 29 -4 27 -21 -2 -18 12 -29 65 -58 37 -21 75 -44 85 -53
10 -9 36 -18 57 -20 22 -2 41 -9 44 -16 3 -10 -10 -13 -54 -11 -54 2 -62 6
-102 46 -47 46 -50 47 -70 35 -28 -18 -10 -126 24 -139 27 -10 39 13 15 33
-24 21 -28 44 -7 44 17 0 33 -19 37 -45 2 -10 14 -22 27 -25 12 -3 28 -16 35
-29 7 -14 31 -38 55 -55 50 -36 88 -106 69 -126 -9 -9 -8 -15 7 -24 49 -30 63
-47 75 -95 7 -28 21 -57 30 -64 27 -19 33 -35 21 -56 -8 -16 -5 -23 15 -39 29
-23 32 -32 8 -32 -31 1 -56 27 -50 52 8 30 5 44 -8 39 -5 -2 -20 -3 -32 -3
-27 2 -30 -10 -8 -28 11 -9 14 -22 9 -43 -6 -27 -4 -29 16 -24 13 3 37 -1 53
-10 24 -12 35 -13 49 -4 24 15 33 -5 23 -55 -6 -36 -6 -36 24 -29 24 5 31 3
31 -9 0 -18 56 -60 70 -51 16 10 12 19 -12 30 -14 6 -27 25 -33 47 -6 20 -16
43 -23 50 -6 6 -12 20 -12 29 0 9 -10 23 -22 31 -21 14 -21 16 -5 32 9 9 23
26 31 37 13 20 14 19 47 -10 31 -29 32 -31 11 -31 -27 0 -28 -16 -2 -32 11 -7
20 -16 20 -21 0 -9 59 -88 75 -99 13 -10 28 -5 33 10 2 7 -4 12 -12 12 -9 0
-22 12 -28 26 -11 23 -10 29 10 45 22 17 22 18 4 28 -14 7 -18 18 -14 37 4 23
2 25 -18 19 -17 -6 -21 -3 -18 10 5 26 39 44 46 25 3 -8 18 -26 34 -40 15 -13
28 -30 28 -37 0 -6 8 -14 18 -17 26 -8 77 -64 68 -73 -4 -5 -17 4 -28 20 -11
15 -24 27 -29 27 -17 0 -9 -21 19 -46 18 -17 23 -27 15 -31 -18 -7 -16 -83 2
-107 8 -11 15 -28 15 -37 0 -10 20 -41 45 -71 38 -44 45 -59 43 -87 -4 -44
-24 -51 -33 -11 -7 34 -32 63 -45 55 -5 -3 -5 -17 1 -32 5 -14 8 -27 6 -29 -1
-2 -21 13 -42 33 -36 33 -95 53 -95 33 0 -27 13 -39 31 -30 14 8 20 6 29 -9 5
-11 10 -29 10 -40 0 -11 16 -36 35 -55 19 -20 35 -40 35 -46 0 -5 5 -10 10
-10 6 0 10 9 10 20 0 11 6 20 14 20 21 0 30 -20 17 -33 -14 -14 -14 -50 0 -64
14 -14 3 -33 -19 -33 -18 0 -57 60 -57 88 0 19 -55 36 -70 21 -7 -7 -4 -14 8
-23 21 -16 22 -26 2 -26 -8 0 -32 16 -54 35 -43 39 -53 43 -50 18 2 -10 -2
-27 -8 -39 -10 -17 -9 -25 3 -43 15 -20 14 -24 -1 -41 -16 -17 -16 -21 -1 -42
9 -12 16 -30 16 -40 0 -10 7 -18 15 -18 19 0 19 29 0 56 -16 24 -9 39 11 23 8
-6 21 -9 29 -5 13 5 13 9 3 26 -9 15 -10 22 -1 31 20 20 43 2 43 -34 0 -19 7
-40 15 -47 8 -7 15 -19 15 -26 0 -8 5 -22 11 -32 9 -14 8 -25 -5 -50 -9 -17
-16 -40 -16 -52 0 -21 14 -27 25 -10 13 22 24 -2 12 -27 -8 -19 -9 -27 -1 -30
26 -9 45 -30 53 -60 12 -41 1 -49 -32 -23 -59 46 -49 9 19 -70 40 -47 54 -72
52 -90 -2 -19 1 -24 15 -22 13 2 17 -4 17 -33 0 -39 2 -40 30 -23 27 17 35 4
20 -32 -14 -35 -5 -54 14 -28 10 13 16 14 24 6 9 -9 9 -15 0 -25 -9 -11 -6
-17 10 -29 13 -9 22 -26 22 -41 0 -22 3 -24 25 -19 22 6 25 3 25 -22 0 -31
-20 -46 -78 -57 -27 -6 -37 -3 -48 14 -9 12 -21 21 -28 21 -6 0 -29 20 -50 44
-36 43 -62 58 -118 70 -32 7 -44 37 -26 65 10 16 10 26 2 39 -13 20 -52 28
-67 13 -16 -16 -37 -14 -37 4 0 23 -44 46 -81 43 l-34 -3 3 52 c4 56 4 55 -50
67 -18 4 -28 13 -28 25 0 10 -11 23 -25 29 -33 15 -32 25 10 56 54 41 41 83
-25 85 -42 1 -110 13 -110 19 0 3 12 18 26 33 l27 28 -29 30 c-32 34 -74 42
-74 14 0 -9 -7 -25 -17 -35 -15 -17 -15 -20 5 -41 29 -31 15 -50 -31 -42 -28
6 -37 3 -45 -12 -5 -10 -6 -27 -1 -38 12 -32 10 -55 -6 -55 -8 0 -15 6 -15 13
0 14 -51 67 -64 67 -4 0 -4 -9 -1 -20 4 -13 0 -31 -9 -45 -24 -37 -39 -31 -34
13 3 20 0 48 -7 62 -21 41 -34 151 -22 178 8 18 7 29 -6 52 -22 37 -21 47 3
53 11 3 20 10 20 16 0 6 -9 15 -20 21 -11 6 -20 17 -20 25 0 8 -6 18 -12 22
-21 13 -39 51 -28 58 6 3 10 10 10 14 0 9 -90 56 -129 66 -17 5 -20 10 -12 18
17 17 13 31 -11 42 -29 13 -36 35 -9 28 25 -6 41 24 20 38 -11 7 -11 11 4 22
17 12 17 14 3 26 -9 7 -13 17 -10 22 7 12 44 12 44 0 0 -5 16 -15 36 -21 25
-9 39 -21 46 -41 7 -19 19 -31 36 -35 15 -3 40 -10 56 -15 36 -11 36 -11 36 1
0 6 -11 16 -25 22 -31 14 -33 38 -2 38 13 0 31 6 41 13 14 10 15 17 6 41 -16
42 -2 46 29 9 20 -24 36 -33 58 -33 47 0 59 22 30 56 -21 24 -27 27 -41 15
-14 -12 -19 -10 -37 13 -28 36 -47 54 -60 58 -9 3 -9 10 1 27 10 19 10 32 0
64 -12 40 -22 43 -70 23 -18 -7 -37 4 -42 23 -2 10 7 14 31 15 28 1 36 6 44
29 11 33 3 57 -18 57 -12 0 -15 -6 -10 -21 10 -29 -9 -39 -66 -32 -29 3 -49 1
-53 -6 -11 -18 -24 -13 -28 11 -2 13 -11 24 -20 26 -25 5 -22 -14 7 -46 27
-28 31 -47 15 -57 -18 -11 -10 -35 15 -47 30 -13 33 -38 6 -38 -11 0 -23 -5
-26 -11 -5 -7 -13 -5 -25 6 -14 12 -27 15 -50 10 -30 -7 -32 -6 -25 16 4 13
13 27 19 32 8 5 6 10 -4 17 -13 9 -13 11 0 20 12 7 12 12 2 22 -18 18 -75 20
-68 3 3 -8 -6 -21 -19 -29 -23 -15 -26 -15 -45 4 -11 11 -20 24 -20 29 0 5 -9
15 -20 22 -27 19 -17 59 14 59 12 0 27 5 34 12 19 19 -6 38 -49 38 -35 0 -38
2 -37 29 1 23 8 33 31 42 27 11 31 10 47 -12 18 -23 18 -23 42 -4 13 11 25 21
27 22 2 2 -3 11 -13 22 -16 18 -16 20 11 39 23 17 25 22 14 35 -10 13 -10 21
2 44 11 20 12 34 5 47 -7 13 -6 21 5 29 9 7 17 23 19 37 2 15 10 26 23 28 31
6 40 19 25 37 -12 14 -15 14 -30 0 -20 -18 -30 -10 -30 26 0 21 -12 36 -50 65
-27 21 -50 42 -50 47 0 5 -14 7 -32 3 -22 -4 -37 -1 -49 10 -25 22 -53 11 -44
-17 7 -21 5 -21 -39 -15 -28 4 -53 3 -66 -4 -17 -9 -25 -8 -39 4 -14 13 -24
14 -44 7 -28 -11 -57 7 -57 34 0 21 16 26 30 10 12 -14 73 -16 86 -2 13 12 -9
28 -31 23 -30 -8 -55 2 -55 21 0 11 10 14 38 11 32 -3 37 0 40 20 4 26 14 28
33 6 8 -10 21 -13 36 -9 19 4 23 2 21 -12 -2 -12 6 -19 30 -24 19 -4 39 -12
45 -18 14 -14 57 -15 57 -1 0 5 -12 13 -26 16 -24 6 -64 37 -64 49 0 3 10 5
21 5 12 0 27 8 34 17 11 15 17 15 39 5 46 -21 106 -13 106 14 0 8 9 14 20 14
11 0 20 -7 20 -15z m-1298 -277 c12 -18 27 -23 84 -26 47 -3 77 -11 93 -23 14
-11 40 -19 62 -19 44 0 47 -5 18 -28 -25 -21 -17 -50 18 -58 19 -5 32 1 59 27
25 24 37 30 45 22 9 -9 8 -16 -5 -28 -22 -22 -21 -26 25 -60 21 -16 46 -43 55
-58 13 -24 20 -28 42 -22 20 5 30 1 43 -17 14 -18 21 -20 30 -11 19 19 2 63
-25 63 -13 0 -29 7 -36 15 -7 8 -21 15 -32 15 -24 0 -30 17 -20 55 6 21 15 31
33 33 13 2 29 8 36 14 15 12 36 1 30 -16 -19 -51 -19 -53 26 -75 55 -27 58
-27 55 7 -3 24 0 27 32 30 19 1 42 6 50 9 8 4 33 8 55 8 22 1 47 4 55 8 8 4
22 3 30 -2 12 -9 12 -12 -3 -29 -20 -22 -13 -32 20 -32 25 0 29 -10 12 -27 -6
-6 -8 -16 -5 -22 12 -18 43 -12 74 14 17 14 39 25 50 25 13 0 22 -9 26 -25 5
-18 13 -25 30 -25 25 0 43 26 23 33 -21 8 7 42 37 45 20 3 26 -1 26 -17 0 -11
-5 -23 -10 -26 -6 -3 -7 -17 -4 -31 4 -17 2 -24 -9 -24 -8 0 -20 -7 -27 -15
-7 -8 -20 -15 -30 -15 -27 0 -80 -30 -80 -45 0 -21 34 -74 59 -91 27 -20 28
-54 1 -54 -11 0 -23 -7 -27 -16 -4 -11 -13 -13 -36 -8 -19 4 -32 2 -38 -7 -11
-19 8 -49 33 -49 16 0 19 -5 15 -22 -9 -32 9 -50 34 -35 14 9 21 9 31 -1 9 -9
8 -15 -7 -26 -16 -12 -18 -18 -7 -40 6 -15 23 -28 39 -32 37 -9 53 -22 53 -45
0 -24 -18 -33 -35 -19 -19 16 -49 5 -41 -15 4 -10 -1 -15 -14 -15 -11 0 -20
-4 -20 -10 0 -5 -9 -10 -20 -10 -14 0 -20 7 -20 21 0 13 5 19 13 16 7 -3 23 6
36 19 l23 24 -26 10 c-14 5 -26 14 -26 21 0 6 -6 9 -12 6 -7 -2 -13 -14 -13
-27 0 -29 -21 -38 -29 -12 -7 22 -34 32 -89 32 -23 0 -51 9 -69 21 -26 19 -36
20 -81 13 -42 -7 -54 -14 -65 -37 -7 -15 -26 -34 -43 -42 -30 -16 -36 -29 -19
-40 18 -11 10 -39 -17 -61 -25 -19 -26 -24 -15 -48 9 -21 9 -28 -1 -31 -56
-20 -69 -28 -79 -50 -16 -35 -32 -26 -36 19 -2 20 -6 36 -10 34 -4 -2 -18 -9
-32 -16 -23 -12 -70 -91 -70 -116 0 -5 -8 -15 -17 -22 -14 -10 -16 -17 -7 -31
16 -27 44 -29 44 -4 0 12 4 21 9 21 5 0 14 14 20 30 11 33 26 39 35 14 4 -9 0
-21 -9 -28 -11 -8 -13 -19 -6 -41 6 -24 13 -30 34 -28 37 2 34 -10 -10 -43
-42 -31 -53 -43 -53 -61 0 -20 21 -15 48 10 23 22 24 22 38 2 22 -30 13 -50
-21 -50 -32 0 -32 0 -18 -66 7 -36 -22 -87 -52 -95 -33 -8 -31 -21 7 -61 35
-36 32 -52 -7 -35 -14 7 -32 12 -40 12 -21 0 -18 -33 5 -58 21 -22 24 -39 14
-66 -10 -27 -32 -18 -63 27 -40 58 -59 73 -73 59 -8 -8 -7 -22 5 -53 16 -40
16 -42 -6 -60 -12 -10 -34 -18 -49 -19 -30 0 -42 -13 -47 -50 0 -5 -6 -10 -13
-10 -6 0 -20 -8 -30 -17 -16 -14 -23 -15 -39 -5 -23 15 -93 0 -122 -26 -21
-18 -24 -15 -57 51 -27 56 -51 69 -80 42 -12 -11 -26 -14 -39 -10 -12 3 -26 3
-33 -2 -7 -4 -29 -8 -48 -8 -29 0 -35 -4 -34 -20 4 -53 12 -70 33 -73 13 -2
26 -14 32 -29 6 -16 15 -23 24 -19 18 7 31 -12 17 -26 -7 -7 -17 -6 -32 2 -17
9 -25 9 -39 -4 -10 -9 -23 -16 -29 -16 -6 0 -13 -4 -16 -9 -12 -19 7 -41 45
-52 21 -7 39 -15 39 -19 0 -12 -56 -60 -63 -54 -8 9 -57 -4 -57 -15 0 -5 19
-15 42 -23 47 -14 61 -41 30 -57 -14 -7 -29 -7 -50 1 -34 13 -53 5 -34 -14 20
-20 13 -28 -19 -21 -31 6 -32 5 -25 -20 7 -29 -8 -38 -18 -11 -4 11 -16 14
-38 12 -19 -2 -33 2 -35 10 -3 8 6 12 27 12 33 0 80 25 80 44 0 16 -49 36 -90
36 -30 0 -38 -5 -55 -36 -10 -19 -31 -42 -45 -49 -45 -23 -53 -39 -30 -60 11
-10 17 -22 14 -26 -8 -13 -44 9 -44 26 0 8 -9 19 -20 25 -11 6 -18 15 -15 20
10 15 -11 20 -30 6 -23 -17 -14 -40 21 -58 35 -17 42 -38 15 -45 -25 -6 -28
-28 -4 -37 10 -4 25 2 40 15 27 26 40 20 21 -10 -10 -16 -10 -23 0 -33 18 -18
14 -38 -8 -38 -27 0 -25 -14 8 -45 15 -14 27 -35 27 -47 0 -15 10 -27 27 -36
27 -13 28 -14 12 -43 -14 -28 -14 -33 0 -54 9 -14 16 -33 16 -45 0 -21 14 -27
24 -11 4 5 7 27 8 49 l1 39 44 1 c47 0 56 -18 13 -28 -32 -8 -34 -22 -10 -53
26 -33 40 -34 40 -4 0 29 35 68 55 61 9 -4 15 -19 15 -36 0 -19 4 -28 13 -25
6 2 11 11 9 21 -2 11 4 16 20 16 17 0 27 9 35 30 7 20 18 30 32 30 15 0 23 9
29 33 6 24 14 33 34 35 14 2 43 19 63 39 34 33 39 35 50 20 7 -9 16 -17 20
-17 5 0 16 -7 26 -16 21 -19 39 -11 39 17 0 24 15 24 40 -1 22 -22 25 -36 10
-45 -34 -21 41 -95 95 -95 27 0 43 19 25 30 -8 5 -4 15 14 33 27 28 33 51 15
63 -6 3 -8 17 -5 29 3 13 1 25 -5 27 -8 3 -8 10 2 25 7 12 10 25 7 28 -12 12
-46 -5 -51 -26 -9 -35 -30 -11 -23 26 7 36 -13 62 -39 51 -13 -5 -14 -10 -4
-27 9 -17 7 -28 -7 -55 -10 -19 -24 -34 -31 -34 -18 0 -16 16 3 46 16 24 16
26 -5 40 -12 8 -21 26 -21 40 0 15 -6 24 -16 24 -12 0 -15 6 -10 24 4 15 0 28
-10 36 -8 7 -13 19 -10 25 2 7 0 17 -6 23 -7 7 -3 17 12 32 20 20 21 24 6 32
-9 5 -16 13 -16 18 0 14 67 43 80 35 7 -4 14 2 17 14 5 18 8 19 21 9 12 -11
17 -9 30 10 8 12 19 22 25 22 6 0 18 7 27 15 13 12 30 14 74 9 72 -9 120 -39
124 -79 4 -38 28 -58 53 -44 11 5 19 16 19 24 0 24 24 17 55 -15 27 -28 31
-29 42 -14 12 16 14 16 33 -1 19 -17 21 -17 39 -1 15 14 24 15 40 7 37 -20 50
-13 57 29 6 36 9 40 36 40 30 0 30 0 23 46 l-7 47 40 -6 c34 -4 41 -2 45 15 5
17 8 17 26 6 17 -10 23 -10 33 0 11 11 9 17 -11 33 -13 10 -32 19 -42 19 -21
0 -24 16 -9 40 9 13 11 13 20 0 7 -12 12 -12 21 -3 9 9 9 16 1 26 -7 8 -9 16
-6 19 9 10 44 -4 44 -18 0 -21 14 -24 53 -12 28 9 40 8 51 -2 22 -18 10 -30
-30 -30 -40 0 -43 -13 -10 -43 29 -27 59 -131 50 -176 -5 -23 -2 -37 12 -52
18 -20 18 -21 1 -34 -18 -13 -23 -35 -7 -35 5 0 17 -14 26 -32 15 -29 15 -34
0 -59 -16 -26 -15 -28 8 -46 13 -11 24 -28 23 -39 -2 -15 6 -20 36 -22 44 -4
47 -18 10 -48 -26 -21 -27 -24 -12 -39 14 -14 20 -15 38 -3 17 10 25 10 41 0
11 -6 27 -12 35 -12 9 0 29 -10 46 -22 25 -19 33 -20 50 -10 11 7 25 9 32 5 6
-4 27 -9 47 -13 32 -5 35 -8 38 -42 2 -25 11 -43 25 -53 16 -12 19 -17 9 -27
-7 -7 -12 -20 -12 -30 0 -11 -7 -18 -20 -18 -27 0 -32 -17 -22 -65 8 -37 11
-40 41 -38 41 2 63 20 41 33 -12 7 -12 12 -2 22 10 10 14 10 21 -1 5 -7 13
-11 19 -7 16 10 42 -5 42 -24 0 -10 -7 -20 -15 -24 -20 -7 -19 -26 3 -42 29
-22 52 -17 52 11 0 16 6 25 15 25 22 0 29 26 16 59 -10 22 -17 27 -35 24 -19
-4 -25 1 -30 22 -4 14 -4 30 -1 35 9 15 25 12 25 -5 0 -20 12 -19 32 3 10 9
26 25 36 35 19 17 32 65 32 118 0 17 8 30 25 39 14 7 25 21 25 30 0 10 7 23
16 31 10 8 14 22 11 38 -3 13 -3 31 0 38 6 15 33 18 33 3 0 -5 18 -10 41 -10
39 0 40 -1 34 -28 l-6 -29 61 0 c46 -1 62 3 69 15 9 15 11 15 30 -2 12 -11 21
-30 21 -43 0 -14 6 -23 16 -23 10 0 14 5 10 15 -3 10 1 18 12 22 9 4 24 16 32
26 14 17 17 17 29 4 9 -12 10 -21 2 -36 -6 -11 -11 -31 -11 -45 0 -14 -4 -26
-10 -26 -15 0 -49 -78 -43 -100 4 -14 0 -20 -11 -20 -10 0 -14 -4 -11 -10 3
-5 17 -10 31 -10 20 0 24 5 24 28 0 16 6 36 13 46 12 16 14 14 30 -19 14 -30
20 -35 42 -29 24 6 25 4 25 -35 0 -23 -4 -41 -10 -41 -5 0 -10 12 -10 27 0 25
-1 26 -20 8 -16 -14 -30 -17 -69 -12 -57 7 -84 -10 -61 -38 11 -14 14 -13 24
1 11 14 16 11 41 -23 16 -21 35 -42 42 -46 22 -14 4 -28 -19 -16 -18 9 -24 8
-35 -7 -20 -27 -11 -39 31 -41 45 -1 77 -26 58 -45 -15 -15 -16 -55 -1 -64 6
-3 8 -17 4 -31 -5 -23 -4 -24 25 -18 26 6 30 4 30 -14 0 -32 19 -35 60 -7 49
32 56 32 64 1 7 -28 31 -34 40 -10 9 24 26 17 26 -10 0 -22 3 -25 25 -19 22 5
25 3 25 -22 0 -16 -4 -34 -8 -40 -10 -15 -71 -45 -107 -53 -25 -6 -31 -13 -35
-41 -3 -18 -10 -35 -17 -37 -7 -3 -10 3 -6 15 7 27 -14 37 -26 13 -13 -23 -6
-47 16 -55 10 -4 13 -14 9 -31 -5 -20 -3 -25 13 -25 14 0 18 -7 17 -29 -1 -16
-5 -33 -9 -37 -14 -14 -7 -34 13 -34 16 0 20 -7 20 -30 0 -20 5 -30 15 -30 8
0 15 4 15 8 0 4 16 14 35 21 21 7 41 24 51 42 13 27 16 28 30 14 19 -19 28
-19 44 0 15 18 5 35 -20 35 -29 0 -32 16 -10 57 11 21 20 48 20 60 0 26 15 31
24 8 7 -19 30 -19 46 0 19 22 39 18 52 -10 9 -21 9 -29 -4 -41 -19 -20 -14
-83 10 -131 15 -31 15 -36 -1 -79 -19 -51 -16 -64 8 -44 12 10 15 10 15 -3 0
-25 -19 -67 -30 -67 -5 0 -10 7 -10 15 0 8 -3 15 -7 15 -15 -1 -113 -98 -113
-113 0 -8 -16 -38 -35 -67 -33 -49 -34 -52 -15 -57 19 -5 29 -23 12 -23 -5 0
-18 -9 -30 -21 -13 -11 -38 -27 -58 -35 -27 -11 -33 -18 -25 -28 6 -7 8 -16 4
-19 -11 -12 -21 -8 -25 9 -2 11 -19 -2 -56 -45 -29 -33 -51 -65 -48 -70 4 -5
23 -5 47 0 23 6 44 8 46 5 7 -7 -47 -32 -83 -40 -26 -6 -32 -4 -37 13 -3 12
-10 21 -16 21 -6 0 -47 -29 -91 -65 -44 -36 -88 -65 -97 -65 -28 0 -83 -49
-83 -75 0 -14 -13 -34 -33 -50 -17 -15 -34 -37 -37 -49 -3 -11 -15 -22 -25
-24 -11 -2 -31 -14 -45 -27 -14 -12 -41 -28 -60 -34 -19 -7 -60 -29 -90 -49
-51 -35 -55 -40 -55 -77 0 -36 -3 -40 -25 -40 -14 0 -41 -8 -60 -17 -19 -8
-57 -23 -85 -31 -88 -28 -153 -53 -169 -66 -15 -13 -106 -6 -106 8 0 4 32 19
72 33 108 38 97 69 -13 34 -24 -8 -56 -17 -70 -20 -29 -6 -46 -51 -28 -72 6
-8 0 -13 -21 -17 -16 -4 -30 -11 -30 -17 0 -12 63 -6 104 10 37 14 46 13 46
-4 0 -23 -15 -27 -107 -32 -88 -4 -117 -14 -96 -35 8 -8 20 -9 42 -1 34 12 53
-1 24 -16 -10 -5 -40 -12 -67 -16 -27 -3 -55 -11 -61 -16 -15 -12 -135 -22
-135 -11 0 3 14 12 30 18 17 6 30 16 30 22 0 17 -47 13 -93 -8 -24 -11 -55
-23 -70 -26 -34 -9 -45 -25 -16 -25 18 0 19 -2 9 -15 -18 -22 -8 -27 25 -15
19 7 32 7 38 1 7 -7 1 -14 -17 -21 -47 -18 -76 -13 -86 15 -8 22 -14 24 -37
18 -16 -5 -99 -8 -186 -8 -86 0 -157 -3 -157 -6 0 -4 7 -12 15 -19 24 -20 17
-33 -7 -16 -28 20 -38 20 -38 1 0 -22 -12 -18 -36 12 -19 25 -29 28 -80 28
-33 -1 -78 -8 -103 -18 -43 -18 -44 -18 -63 3 -15 16 -27 19 -54 14 -26 -5
-35 -2 -40 10 -9 24 2 31 31 18 15 -7 26 -8 30 -2 7 12 -111 70 -142 70 -12 0
-29 3 -37 6 -15 6 -15 8 0 19 16 11 13 15 -23 39 -46 31 -96 32 -101 4 -3 -15
4 -18 33 -18 22 0 34 -4 30 -10 -7 -11 -74 -14 -99 -4 -9 3 -16 14 -16 24 0
11 -12 22 -30 29 -41 14 -38 25 6 16 54 -10 39 15 -19 32 -35 10 -47 18 -47
33 0 24 9 25 55 3 26 -12 38 -14 46 -6 8 8 0 17 -32 34 -24 12 -55 30 -68 40
-27 22 -45 16 -36 -12 11 -35 -24 -21 -39 16 -16 38 -27 43 -46 20 -15 -18
-44 -20 -37 -2 7 19 -48 79 -69 75 -20 -3 -33 -38 -15 -38 13 0 81 -67 81 -81
0 -14 -11 -7 -121 82 -53 43 -114 88 -135 100 -44 24 -124 106 -124 127 0 7
-14 27 -30 44 -31 30 -34 52 -5 28 11 -9 19 -10 26 -3 14 14 -26 70 -63 89
-30 15 -35 28 -17 40 6 3 23 -5 37 -19 15 -13 36 -29 47 -34 21 -10 125 -6
125 5 0 4 -33 20 -73 36 -39 16 -83 37 -97 46 -14 10 -35 21 -47 24 -28 9 -29
17 -3 36 11 8 20 20 20 26 0 16 -28 26 -51 19 -14 -5 -19 -1 -19 14 0 12 6 21
14 21 26 0 29 21 7 44 -25 26 -27 46 -6 46 8 0 21 -15 29 -34 8 -18 19 -37 25
-40 6 -4 18 -32 27 -62 18 -64 60 -98 134 -109 25 -4 64 -16 88 -27 24 -11 46
-18 49 -15 12 12 -8 38 -42 54 -19 9 -35 20 -35 25 0 13 39 9 63 -6 15 -10 35
-12 62 -7 35 5 40 10 43 36 2 17 9 36 15 44 19 22 -20 41 -87 42 -34 1 -76 2
-95 3 -33 1 -59 26 -27 26 9 0 24 8 34 17 37 36 59 43 92 32 38 -14 49 -5 26
20 -10 11 -15 25 -11 31 4 7 -2 24 -12 39 -11 14 -23 37 -27 49 -4 13 -21 38
-36 56 -19 22 -26 37 -20 46 12 20 38 -4 61 -58 10 -24 31 -60 46 -80 36 -49
115 -132 126 -132 9 0 6 31 -8 63 -13 32 19 18 43 -18 25 -39 64 -47 82 -18
10 17 10 17 20 1 6 -10 18 -18 26 -18 11 0 13 7 8 28 -7 24 -6 26 9 13 14 -11
21 -11 43 4 16 10 37 15 53 12 15 -3 38 2 54 11 27 16 29 16 41 0 18 -24 47
-23 53 2 6 23 31 27 39 5 8 -20 40 -19 48 1 3 9 6 30 6 47 0 18 5 39 10 47 6
10 4 22 -6 38 -10 16 -12 27 -5 41 7 13 6 24 -4 37 -13 18 -15 18 -43 1 -46
-26 -81 -20 -51 10 8 8 7 16 -2 31 -10 16 -9 24 8 48 14 21 19 40 15 70 -4 38
-1 44 42 84 25 24 46 46 46 50 0 3 -6 15 -14 26 -14 19 -15 19 -38 -4 -25 -23
-47 -19 -27 5 9 10 8 18 -6 33 -22 24 -41 26 -49 5 -7 -19 -36 -20 -36 -1 0
12 25 46 33 46 28 -2 108 -37 129 -57 30 -29 30 -29 28 37 -1 25 -1 57 -1 73
0 30 -12 33 -49 12 -37 -21 -65 -18 -99 11 -50 42 -57 62 -30 90 19 20 21 27
11 49 -12 26 -4 33 16 13 22 -22 26 2 5 30 -12 17 -36 31 -62 37 -48 12 -60
27 -61 70 -1 21 -14 45 -46 80 -41 46 -45 49 -58 33 -17 -23 -36 -23 -36 0 0
20 -46 69 -56 60 -3 -3 1 -16 8 -27 12 -19 10 -24 -11 -40 -19 -15 -22 -24
-17 -45 7 -29 42 -69 67 -78 11 -4 7 -11 -13 -31 -31 -28 -38 -77 -13 -77 8 0
15 -8 15 -17 0 -9 11 -29 25 -43 20 -21 27 -39 29 -84 3 -43 0 -59 -11 -63 -8
-3 -19 -16 -24 -30 -10 -28 -36 -40 -52 -24 -8 8 -8 14 1 23 7 7 12 21 12 31
0 25 -37 77 -55 77 -19 0 -29 20 -17 32 8 8 8 17 1 30 -9 16 -17 19 -44 14
-30 -6 -33 -4 -38 21 -3 16 -1 42 5 60 9 24 9 35 -1 47 -16 19 -31 12 -31 -15
0 -25 -16 -25 -23 1 -3 11 -13 20 -22 20 -13 0 -16 5 -10 23 4 12 9 34 12 50
9 46 -38 80 -52 37 -10 -31 -45 -26 -45 7 0 14 -7 35 -17 45 -23 26 -11 32 32
17 31 -11 40 -11 63 2 34 19 51 78 33 111 -7 13 -27 50 -44 82 -36 67 -60 87
-78 69 -10 -10 -9 -21 1 -53 10 -29 10 -44 3 -51 -8 -8 -15 -5 -25 10 -17 27
-35 27 -58 -1 -10 -13 -22 -20 -26 -15 -4 4 2 17 14 30 27 29 28 43 2 50 -28
7 -29 77 -2 77 38 0 57 45 25 57 -10 3 -25 15 -34 25 -15 19 -15 19 -40 -1
-19 -15 -21 -22 -12 -32 11 -11 10 -31 -3 -97 -6 -32 -24 -17 -24 20 0 21 -6
31 -20 35 -23 6 -25 16 -8 42 14 22 5 49 -19 58 -10 3 -25 12 -33 19 -8 7 -26
14 -40 16 -17 2 -26 10 -28 26 -4 24 -12 28 -29 11 -16 -16 -35 -1 -28 22 5
14 2 19 -14 19 -25 0 -38 20 -20 31 8 5 22 2 36 -6 28 -19 42 -19 64 1 14 13
22 13 39 4 17 -9 29 -9 46 -1 30 13 30 28 1 65 l-24 29 -42 -16 c-45 -19 -71
-22 -71 -9 0 5 19 15 43 21 65 20 92 51 45 51 -29 0 -52 15 -44 28 7 11 -21
72 -34 72 -4 0 -8 22 -8 49 0 42 4 50 24 60 31 14 30 41 -1 71 -14 13 -22 27
-17 32 4 4 34 10 67 14 73 8 101 24 110 63 9 41 29 56 48 36 9 -8 24 -15 35
-15 26 0 54 -33 46 -54 -13 -35 63 -78 90 -50 8 8 24 14 36 14 13 0 24 8 27
20 7 26 21 26 25 -1 4 -28 30 -44 54 -35 18 7 17 9 -6 26 -21 16 -23 21 -12
32 11 11 15 10 23 -4 6 -10 17 -18 24 -18 23 0 57 39 51 57 -7 17 12 46 24 38
5 -3 6 -21 3 -40 -3 -19 -3 -35 0 -35 3 0 23 10 43 22 l37 22 -7 -27 c-5 -23
-2 -29 19 -39 19 -8 31 -8 50 0 20 9 25 9 25 -2 0 -7 -7 -19 -15 -26 -16 -14
-21 -50 -6 -50 5 0 28 16 51 35 32 27 50 34 79 33 46 -1 121 43 121 72 0 23 9
25 44 9 22 -10 30 -7 69 25 24 20 49 36 56 36 6 0 11 8 11 17 0 9 10 27 22 41
l23 23 -25 19 c-20 15 -23 21 -12 31 19 20 14 39 -10 39 -12 0 -46 5 -75 12
-38 9 -55 19 -62 35 -6 13 -18 26 -26 29 -8 3 -28 33 -45 65 l-30 60 25 9 c14
5 36 22 49 37 l23 26 71 -22 c72 -23 112 -21 77 5 -17 13 -17 15 8 38 15 14
27 31 27 38 0 8 20 34 45 58 62 61 61 114 -1 126 -36 7 -48 34 -14 34 11 0 20
5 20 10 0 6 -6 10 -13 10 -7 0 -18 5 -25 12 -9 9 -7 14 5 24 16 11 15 15 -11
48 -30 40 -30 61 0 61 14 0 20 9 24 33 4 23 14 38 37 51 18 12 30 27 30 38 -2
19 8 21 57 8 26 -7 28 -6 21 11 -5 10 -10 37 -13 59 -2 22 -11 46 -20 54 -13
10 -14 15 -4 18 17 6 15 33 -2 33 -8 0 -17 11 -20 24 -7 30 -100 84 -159 92
-51 7 -109 51 -86 65 8 5 19 9 25 9 6 0 21 11 34 25 19 21 22 29 13 43 -14 22
-99 19 -125 -5 -19 -17 -25 -53 -8 -53 6 0 10 -4 10 -10 0 -13 -27 -13 -32 0
-1 5 -24 14 -49 18 -51 10 -129 65 -129 92 0 31 21 39 84 33 56 -5 64 -3 93
21 43 36 86 50 112 37 17 -9 22 -8 31 9 14 26 34 25 52 -2z m-782 -93 c0 -7
-11 -22 -23 -32 -13 -10 -26 -30 -30 -43 -3 -14 -8 -35 -12 -47 -6 -17 -2 -22
17 -25 43 -6 25 -32 -37 -53 -89 -30 -134 -56 -140 -79 -12 -45 -61 -136 -72
-136 -21 0 -22 16 -3 45 10 15 16 33 14 40 -3 6 4 32 15 58 16 38 26 47 57 56
41 11 114 76 114 101 0 9 -5 21 -11 27 -16 16 5 49 40 61 16 6 35 20 41 31 11
22 30 20 30 -4z m1725 -1601 c28 -3 62 -10 77 -16 23 -8 26 -14 18 -28 -7 -12
-7 -28 0 -45 15 -40 13 -42 -35 -41 -36 1 -45 5 -47 21 -2 16 -12 21 -51 23
-43 3 -49 6 -67 41 -22 45 -11 66 30 56 14 -3 48 -8 75 -11z m-248 -50 c3 -8
0 -27 -8 -40 -10 -20 -10 -29 -1 -44 23 -38 6 -74 -23 -50 -9 7 -28 10 -44 7
-24 -5 -36 0 -65 28 -20 18 -36 40 -36 49 0 25 42 46 92 46 26 0 50 5 53 10 9
15 25 12 32 -6z m-2289 -244 c8 -14 23 -20 47 -20 36 0 46 -15 23 -38 -21 -21
1 -26 37 -7 19 11 37 16 40 13 4 -3 2 -23 -4 -45 -9 -32 -9 -40 5 -48 47 -30
49 -32 35 -49 -7 -9 -21 -16 -30 -16 -31 0 -61 -30 -61 -60 0 -16 -5 -32 -11
-36 -7 -4 -8 -20 -4 -41 4 -21 2 -40 -6 -49 -19 -23 -32 -16 -25 12 5 17 1 35
-9 50 -12 18 -13 29 -5 43 19 36 13 54 -16 48 -20 -3 -27 1 -34 18 -5 13 -18
26 -29 30 -25 8 -34 31 -20 56 6 11 9 32 7 47 -3 23 0 27 20 24 19 -3 24 2 24
28 1 3 -2 17 -6 33 -7 32 4 36 22 7z m4421 -750 c5 0 14 6 21 14 19 24 40 7
40 -31 0 -51 -28 -101 -73 -134 -51 -37 -87 -39 -87 -5 0 42 40 156 63 179
l22 22 3 -22 c2 -13 7 -23 11 -23z m-3915 -62 c-4 -7 -16 -24 -28 -37 -13 -14
-17 -25 -10 -28 6 -2 18 -9 27 -16 15 -11 14 -16 -13 -56 -18 -26 -30 -57 -30
-76 0 -37 -22 -71 -39 -61 -6 4 -10 23 -9 41 1 19 0 36 -2 37 -3 2 -13 8 -23
13 -16 9 -46 72 -47 98 0 4 12 12 27 18 23 8 30 7 41 -8 13 -17 14 -17 28 1 8
11 14 25 14 32 0 13 47 54 62 54 5 0 6 -6 2 -12z m183 -444 c1 -16 6 -56 11
-89 11 -67 9 -77 -14 -68 -9 3 -20 0 -25 -8 -7 -11 -11 -11 -22 4 -12 17 -14
17 -26 3 -11 -12 -11 -19 -2 -30 18 -22 21 -83 5 -97 -8 -6 -14 -18 -14 -25 0
-18 -34 -18 -50 1 -15 18 -5 35 23 35 l22 0 -22 18 c-25 19 -19 37 12 44 18 4
17 7 -15 39 -34 32 -60 76 -60 101 0 7 15 -5 34 -25 36 -39 43 -42 65 -28 12
8 12 12 2 25 -7 8 -18 13 -26 10 -22 -9 -27 14 -5 26 12 6 25 22 30 36 5 13
16 24 24 24 7 0 16 9 19 21 8 30 32 18 34 -17z m-823 -470 c9 -4 21 -15 27
-27 10 -18 9 -19 -15 -15 -16 3 -26 1 -25 -6 1 -17 92 -149 106 -154 21 -6 28
29 10 43 -21 15 -22 35 -2 35 9 0 20 -11 26 -24 6 -13 22 -29 35 -35 13 -6 24
-17 24 -25 0 -9 8 -31 17 -51 22 -46 7 -66 -31 -41 -25 16 -26 16 -26 -4 0
-11 -4 -20 -9 -20 -16 0 -71 70 -87 110 -8 21 -33 52 -55 69 -21 18 -46 45
-54 61 -14 27 -14 33 0 60 16 30 29 35 59 24z"/>
<path d="M2665 4088 c-2 -7 -3 -31 -2 -53 2 -40 2 -40 40 -37 28 3 37 0 37
-12 0 -8 -4 -18 -10 -21 -19 -12 -10 -33 20 -44 17 -6 34 -21 40 -35 6 -16 17
-26 30 -26 23 0 25 12 9 42 -10 19 -9 20 14 14 34 -8 57 2 68 30 5 14 17 24
29 24 14 0 20 7 20 21 0 19 -4 20 -34 15 -24 -5 -37 -2 -46 9 -7 8 -27 15 -45
15 -18 0 -38 7 -45 15 -14 17 -46 20 -55 5 -3 -5 -12 -7 -20 -4 -11 4 -12 11
-5 24 5 9 6 20 3 24 -11 11 -43 7 -48 -6z"/>
<path d="M4410 2240 c0 -5 5 -10 10 -10 6 0 10 -5 10 -11 0 -8 -15 -10 -45 -7
-25 3 -48 1 -51 -4 -8 -13 16 -38 38 -38 29 0 33 -28 8 -55 -12 -13 -19 -28
-16 -34 4 -5 -2 -15 -13 -20 -12 -7 -17 -18 -15 -29 4 -13 -4 -21 -30 -30 -38
-14 -46 -29 -21 -38 8 -4 15 -15 15 -26 0 -16 4 -19 23 -14 39 12 52 11 52 -4
0 -8 -11 -17 -25 -20 -29 -7 -39 -39 -18 -54 8 -6 20 -21 27 -33 6 -13 20 -23
31 -23 11 0 27 -11 36 -25 21 -33 35 -32 69 7 28 31 28 31 36 10 6 -16 17 -22
39 -22 16 0 39 -8 50 -17 l21 -18 -23 -5 c-27 -7 -37 -47 -14 -56 27 -10 66 5
78 31 12 28 4 82 -18 110 -15 19 -16 19 -29 2 -9 -12 -15 -14 -20 -7 -4 6 -1
17 5 25 8 10 10 37 5 91 -8 76 -8 76 -34 69 -57 -14 -66 -11 -69 18 -3 22 1
30 17 34 14 3 21 13 21 29 0 20 5 24 30 24 17 0 30 5 30 10 0 6 11 15 25 20
32 12 32 27 -1 42 -20 9 -30 9 -45 0 -17 -11 -23 -9 -42 12 -23 27 -111 76
-133 76 -8 0 -14 -4 -14 -10z"/>
<path d="M4783 1996 c-35 -11 -40 -24 -23 -57 8 -13 7 -25 -1 -40 -9 -19 -6
-27 30 -63 46 -47 50 -64 21 -89 -11 -9 -17 -23 -14 -32 9 -22 31 -18 37 6 5
18 11 21 38 15 40 -8 59 7 59 45 0 22 -5 29 -20 29 -12 0 -24 10 -29 24 -11
27 -31 37 -60 29 -29 -8 -28 30 1 49 18 12 20 18 11 30 -7 8 -10 23 -7 35 7
27 -3 31 -43 19z"/>
</g>
</svg>
